<svg xmlns="http://www.w3.org/2000/svg" width="500" height="500" viewBox="0 0 375 375"><defs><filter id="a" width="100%" height="100%" x="0%" y="0%"><feColorMatrix color-interpolation-filters="sRGB" values="0 0 0 0 1 0 0 0 0 1 0 0 0 0 1 0 0 0 1 0"/></filter><filter id="b" width="100%" height="100%" x="0%" y="0%"><feColorMatrix color-interpolation-filters="sRGB" values="0 0 0 0 1 0 0 0 0 1 0 0 0 0 1 0.2126 0.7152 0.0722 0 0"/></filter><clipPath id="c"><path d="M0 112.39h141V262H0Zm0 0"/></clipPath><mask id="d"><g filter="url(#a)"><g filter="url(#b)" transform="translate(-8.863 112.39)scale(.15625)"><image width="960" height="960"/></g></g></mask></defs><path fill="#093655" d="m181.174 160.484-15.235 16.344L183.58 202.5h-16.094l-10.265-16.344-3.782 3.953V202.5h-12.687v-42.016h12.75l-.063 8.5q0 .955-.171 6.438l11.968-14.938Zm25.599-1.109q9.434 0 15.219 6.078 5.778 6.128 5.78 16.047 0 9.844-5.843 15.922c-3.855 4.055-8.95 6.078-15.281 6.078-6.45 0-11.64-2.023-15.578-6.078-3.93-4.008-5.89-9.336-5.89-15.985 0-6.644 1.96-11.992 5.89-16.046q5.906-6.014 15.703-6.016m-.188 10.328c-2.593 0-4.636 1.024-6.125 3.063q-2.189 3.063-2.187 8.5c0 3.73.726 6.62 2.187 8.671 1.446 2.086 3.508 3.125 6.188 3.125 2.633 0 4.64-1.039 6.015-3.125q2.063-3.077 2.063-9.03c0-3.5-.727-6.255-2.172-8.266q-2.126-2.937-5.969-2.938m27.021-9.219h18.765c6.488 0 11.64 1.852 15.453 5.547q5.72 5.612 5.72 15.344 0 10.395-5.532 15.75c-3.668 3.586-8.961 5.375-15.875 5.375h-18.531Zm12.625 10.563v20.828h5.078c3.101 0 5.441-.898 7.015-2.703q2.421-2.718 2.422-7.563c0-3.5-.945-6.132-2.828-7.906q-2.782-2.655-7.844-2.656Zm67.911-10.563v10.22h-22.125v5.25h20.047v9.733h-20.047v6.141h22.703V202.5h-35.39v-42.016Zm0 0"/><path fill="#1fe3c0" d="m360.158 160.484-13.406 19.72 15.047 22.296H346.22l-4.063-6.844a51 51 0 0 1-3.062-6.015q-1.958 3.954-3.375 6.187l-4 6.672h-14.938l15.281-22.297-13.859-19.719h15.11l3.171 5.547q1.547 2.612 3.14 6.203 1.594-3.356 2.767-5.547l3.421-6.203Zm0 0"/><g clip-path="url(#c)" mask="url(#d)"><image width="960" height="960" transform="translate(-8.863 112.39)scale(.15625)"/></g></svg>